[Header]
# KeyWord<space>Value<CR>FileType htr
DataType HTRS
FileVersion 1.0
NumSegments 32
NumFrames 4
DataFrameRate 24
EulerRotationOrder XYZ
CalibrationUnits m
RotationUnits Degrees
GlobalAxisofGravity Z
BoneLengthAxis Z
BoneLengthAxis Z
ScaleFactor 1.00
[SegmentNames&Hierarchy]
# ObjectName<tab>ParentObjectName<CR>
pelvis	GLOBAL
spine01	pelvis
spine02	spine01
spine03	spine02
neck	spine03
head	neck
Collar_left	spine03
shoulder_up_left	Collar_left
bicep_up_left	shoulder_up_left
forearm_up_left	bicep_up_left
hand_up_left	forearm_up_left
shoulder_down_left	Collar_left
bicep_down_left	shoulder_down_left
forearm_down_left	bicep_down_left
hand_down_left	forearm_down_left
Collar_right	spine03
shoulder_up_right	Collar_right
bicep_up_right	shoulder_up_right
forearm_up_right	bicep_up_right
hand_up_right	forearm_up_right
shoulder_down_right	Collar_right
bicep_down_right	shoulder_down_right
forearm_down_right	bicep_down_right
hand_down_right	forearm_down_right
hip_left	pelvis
thigh_left	hip_left
shin_left	thigh_left
foot_left	shin_left
hip_right	pelvis
thigh_right	hip_right
shin_right	thigh_right
foot_right	shin_right
[BasePosition]
# ObjectName<tab>Tx<tab>Ty<tab>Tz<tab>Rx<tab>Ry<tab>Rz<tab>BoneLength<CR>
pelvis	0.000000	-0.438872	6.292977	90.000003	-0.000000	0.000000	1.000000
spine01	0.000000	-0.438872	7.970248	90.000003	-0.000000	0.000000	1.000000
spine02	0.000000	-0.438872	10.340697	90.000003	-0.000000	0.000000	1.000000
spine03	0.000000	-0.438872	13.021563	90.000003	-0.000000	0.000000	1.000000
neck	0.000000	-0.438872	16.182161	90.000003	-0.000000	0.000000	1.000000
head	0.000000	-0.438872	17.452044	90.000003	-0.000000	0.000014	1.000000
Collar_left	0.000000	-0.438872	16.182161	114.324943	-109.283163	-3.448282	1.000000
shoulder_up_left	-2.246972	-1.353188	15.416688	89.999955	-101.168646	0.000051	1.000000
bicep_up_left	-4.544489	-1.353188	14.963074	94.597615	-95.170613	-0.305692	1.000000
forearm_up_left	-8.587797	-1.657960	14.597347	85.600206	-93.126604	-0.279561	1.000000
hand_up_left	-12.306015	-1.353188	14.394166	85.300436	-97.657908	-0.750653	1.000000
shoulder_down_left	-2.246972	-1.353188	15.416688	97.171845	-144.053812	-0.627842	1.000000
bicep_down_left	-4.260035	-1.761673	12.646806	95.982825	-137.161086	0.000016	1.000000
forearm_down_left	-6.332484	-2.081106	10.411811	78.293864	-138.751741	0.000033	1.000000
hand_down_left	-8.648752	-1.353187	7.770453	89.999989	-141.340205	0.000017	1.000000
Collar_right	0.000000	-0.438872	16.182161	114.324943	109.283163	3.448282	1.000000
shoulder_up_right	2.246972	-1.353188	15.416688	89.999955	101.168646	-0.000051	1.000000
bicep_up_right	4.544489	-1.353188	14.963074	94.597615	95.170613	0.305692	1.000000
forearm_up_right	8.587797	-1.657960	14.597347	85.600206	93.126604	0.279561	1.000000
hand_up_right	12.306015	-1.353188	14.394166	85.300436	97.657908	0.750653	1.000000
shoulder_down_right	2.246972	-1.353188	15.416688	97.171845	144.053812	0.627842	1.000000
bicep_down_right	4.260035	-1.761673	12.646806	95.982825	137.161086	-0.000016	1.000000
forearm_down_right	6.332484	-2.081106	10.411811	78.293864	138.751741	-0.000033	1.000000
hand_down_right	8.648752	-1.353187	7.770453	89.999989	141.340205	-0.000017	1.000000
hip_left	0.000000	-0.438872	6.292977	-6.241914	-0.000005	89.999996	1.000000
thigh_left	-2.600721	-0.438872	6.008523	-79.303489	-0.000003	90.000003	1.000000
shin_left	-3.000499	-0.438872	3.892051	-90.969439	1.681318	89.968611	1.000000
foot_left	-2.953466	-0.520526	1.111133	-93.081914	-75.718200	93.179995	1.000000
hip_right	0.000000	-0.438872	6.292977	-6.241914	0.000005	-89.999996	1.000000
thigh_right	2.600721	-0.438872	6.008523	-79.303489	0.000003	-90.000003	1.000000
shin_right	3.000499	-0.438872	3.892051	-90.969439	-1.681318	-89.968611	1.000000
foot_right	2.953466	-0.520526	1.111133	-93.081914	75.718200	-93.179995	1.000000
[pelvis]
# Tx<tab>Ty<tab>Tz<tab>Rx<tab>Ry<tab>Rz<tab>BoneScaleFactor<CR>
55	0.000000	0.000000	0.000000	0.000000	-0.000000	0.000000	1.000000
56	0.000000	0.000000	0.000000	0.000000	-0.000000	0.000000	1.000000
57	0.000000	0.000000	0.000000	0.000000	-0.000000	0.000000	1.000000
58	0.000000	0.000000	0.000000	0.000000	-0.000000	0.000000	1.000000
[spine01]
# Tx<tab>Ty<tab>Tz<tab>Rx<tab>Ry<tab>Rz<tab>BoneScaleFactor<CR>
55	0.000000	0.000000	0.000000	-1.197262	0.000000	0.000000	1.000000
56	0.000000	0.000000	0.000000	-0.785221	0.000000	0.000000	1.000000
57	0.000000	0.000000	0.000000	-0.452373	0.000000	0.000000	1.000000
58	0.000000	0.000000	0.000000	-0.205811	0.000000	0.000000	1.000000
[spine02]
# Tx<tab>Ty<tab>Tz<tab>Rx<tab>Ry<tab>Rz<tab>BoneScaleFactor<CR>
55	-0.000000	0.000000	0.000000	-1.467025	0.000000	0.000000	1.000000
56	0.000000	0.000001	0.000000	-0.962030	0.000000	0.000000	1.000000
57	-0.000000	0.000000	0.000000	-0.554181	0.000000	0.000000	1.000000
58	0.000000	0.000000	0.000000	-0.252109	0.000000	0.000000	1.000000
[spine03]
# Tx<tab>Ty<tab>Tz<tab>Rx<tab>Ry<tab>Rz<tab>BoneScaleFactor<CR>
55	0.000000	0.000000	0.000000	-1.135387	0.000000	0.000000	1.000000
56	-0.000000	0.000000	-0.000000	-0.744658	0.000000	0.000000	1.000000
57	0.000000	0.000000	0.000000	-0.429011	0.000000	0.000000	1.000000
58	-0.000000	0.000000	0.000000	-0.195186	0.000000	0.000000	1.000000
[neck]
# Tx<tab>Ty<tab>Tz<tab>Rx<tab>Ry<tab>Rz<tab>BoneScaleFactor<CR>
55	0.000000	0.000000	0.000000	0.000000	-0.000000	0.000000	1.000000
56	0.000000	0.000000	0.000000	0.000000	-0.000000	0.000000	1.000000
57	0.000000	0.000000	0.000000	0.000000	-0.000000	0.000000	1.000000
58	-0.000000	0.000000	-0.000000	0.000000	-0.000000	0.000000	1.000000
[head]
# Tx<tab>Ty<tab>Tz<tab>Rx<tab>Ry<tab>Rz<tab>BoneScaleFactor<CR>
55	-0.000000	0.000000	0.000000	-0.193378	-0.000000	-0.000001	1.000000
56	0.000000	0.000002	0.000000	-0.126855	-0.000000	-0.000001	1.000000
57	0.000000	0.000000	0.000000	-0.073095	-0.000000	-0.000001	1.000000
58	0.000000	0.000000	0.000000	-0.033261	-0.000000	-0.000001	1.000000
[Collar_left]
# Tx<tab>Ty<tab>Tz<tab>Rx<tab>Ry<tab>Rz<tab>BoneScaleFactor<CR>
55	0.000001	0.000000	0.000000	-0.000001	0.000001	-0.000002	1.000000
56	-0.000001	0.000000	-0.000000	-0.000001	-0.000000	0.000000	1.000000
57	-0.000001	0.000000	0.000000	-0.000003	0.000001	0.000002	1.000000
58	0.000000	0.000000	0.000000	-0.000000	-0.000000	-0.000002	1.000000
[shoulder_up_left]
# Tx<tab>Ty<tab>Tz<tab>Rx<tab>Ry<tab>Rz<tab>BoneScaleFactor<CR>
55	-0.000001	0.000000	-0.000000	-0.000002	-0.000004	-2.797328	1.000000
56	-0.000002	0.000000	-0.000000	-0.000002	-0.000004	-1.832657	1.000000
57	0.000000	-0.000000	0.000000	-0.000002	-0.000004	-1.054869	1.000000
58	0.000001	-0.000000	-0.000000	-0.000002	-0.000004	-0.479597	1.000000
[bicep_up_left]
# Tx<tab>Ty<tab>Tz<tab>Rx<tab>Ry<tab>Rz<tab>BoneScaleFactor<CR>
55	0.000000	0.000000	-0.000000	-0.000000	-0.000000	-0.000000	1.000000
56	0.000001	-0.000000	-0.000000	-0.000000	-0.000000	0.000000	1.000000
57	0.000000	0.000000	-0.000000	0.000000	0.000000	0.000000	1.000000
58	0.000000	-0.000000	-0.000000	-0.000000	-0.000000	0.000000	1.000000
[forearm_up_left]
# Tx<tab>Ty<tab>Tz<tab>Rx<tab>Ry<tab>Rz<tab>BoneScaleFactor<CR>
55	0.000001	0.000000	0.000000	0.000000	-0.000000	0.000000	1.000000
56	-0.000001	0.000002	0.000000	-0.000000	0.000000	0.000000	1.000000
57	0.000000	0.000000	0.000000	-0.000000	-0.000000	0.000000	1.000000
58	0.000001	-0.000000	-0.000000	0.000000	-0.000000	0.000000	1.000000
[hand_up_left]
# Tx<tab>Ty<tab>Tz<tab>Rx<tab>Ry<tab>Rz<tab>BoneScaleFactor<CR>
55	0.000000	0.000000	-0.000000	-0.223151	-2.884608	-0.527587	1.000000
56	0.000001	0.000000	0.000000	-0.149138	-1.889340	-0.346775	1.000000
57	0.000000	0.000000	-0.000000	-0.087220	-1.087252	-0.200155	1.000000
58	-0.000001	0.000000	0.000000	-0.040120	-0.494238	-0.091195	1.000000
[shoulder_down_left]
# Tx<tab>Ty<tab>Tz<tab>Rx<tab>Ry<tab>Rz<tab>BoneScaleFactor<CR>
55	0.000000	0.000000	0.000000	0.000000	0.000000	-0.000002	1.000000
56	-0.000001	0.000001	0.000000	0.000000	0.000000	0.000002	1.000000
57	0.000000	0.000000	0.000000	0.000000	-0.000000	0.000000	1.000000
58	0.000000	0.000000	-0.000000	0.000000	-0.000000	0.000002	1.000000
[bicep_down_left]
# Tx<tab>Ty<tab>Tz<tab>Rx<tab>Ry<tab>Rz<tab>BoneScaleFactor<CR>
55	0.000000	0.000000	0.000000	-2.577597	-2.364648	0.301770	1.000000
56	0.000000	-0.000001	0.000000	-1.685680	-1.549548	0.185487	1.000000
57	0.000000	-0.000000	0.000000	-0.968949	-0.892008	0.101114	1.000000
58	0.000000	-0.000000	0.000000	-0.440113	-0.405567	0.044080	1.000000
[forearm_down_left]
# Tx<tab>Ty<tab>Tz<tab>Rx<tab>Ry<tab>Rz<tab>BoneScaleFactor<CR>
55	-0.000001	-0.000000	0.000000	-1.880745	-1.623829	-0.308773	1.000000
56	-0.000001	-0.000000	-0.000000	-1.233369	-1.062987	-0.208350	1.000000
57	0.000000	0.000000	0.000000	-0.710520	-0.611435	-0.122740	1.000000
58	-0.000001	0.000000	-0.000000	-0.323251	-0.277848	-0.056754	1.000000
[hand_down_left]
# Tx<tab>Ty<tab>Tz<tab>Rx<tab>Ry<tab>Rz<tab>BoneScaleFactor<CR>
55	0.000002	0.000000	0.000000	-0.000000	-0.000000	-0.000003	1.000000
56	0.000000	-0.000000	0.000000	0.000000	-0.000000	0.000000	1.000000
57	-0.000001	0.000000	0.000000	0.000000	-0.000000	0.000000	1.000000
58	0.000000	-0.000000	0.000000	0.000000	0.000000	0.000000	1.000000
[Collar_right]
# Tx<tab>Ty<tab>Tz<tab>Rx<tab>Ry<tab>Rz<tab>BoneScaleFactor<CR>
55	-0.000001	0.000000	0.000000	-0.000001	-0.000001	0.000002	1.000000
56	0.000001	0.000000	-0.000000	-0.000001	-0.000000	0.000000	1.000000
57	0.000001	0.000000	0.000000	-0.000003	-0.000001	-0.000002	1.000000
58	0.000000	0.000000	0.000000	-0.000000	-0.000000	0.000002	1.000000
[shoulder_up_right]
# Tx<tab>Ty<tab>Tz<tab>Rx<tab>Ry<tab>Rz<tab>BoneScaleFactor<CR>
55	0.000001	0.000000	-0.000000	0.410612	0.100306	3.129797	1.000000
56	0.000002	0.000000	-0.000000	0.268299	0.068227	2.049639	1.000000
57	0.000000	-0.000000	0.000000	0.154088	0.040432	1.179350	1.000000
58	-0.000001	-0.000000	-0.000000	0.069937	0.018771	0.536061	1.000000
[bicep_up_right]
# Tx<tab>Ty<tab>Tz<tab>Rx<tab>Ry<tab>Rz<tab>BoneScaleFactor<CR>
55	0.000000	-0.000000	-0.000000	0.000000	0.000000	0.000000	1.000000
56	0.000000	0.000000	-0.000000	0.000000	-0.000000	0.000000	1.000000
57	0.000000	0.000000	-0.000000	-0.000000	0.000000	0.000000	1.000000
58	0.000000	-0.000000	0.000000	0.000000	-0.000000	0.000000	1.000000
[forearm_up_right]
# Tx<tab>Ty<tab>Tz<tab>Rx<tab>Ry<tab>Rz<tab>BoneScaleFactor<CR>
55	0.000000	-0.000001	0.000000	-2.271451	-1.846038	1.622017	1.000000
56	-0.000001	0.000000	0.000000	-1.481235	-1.216035	1.053686	1.000000
57	0.000000	-0.000001	0.000000	-0.849418	-0.702946	0.602344	1.000000
58	0.000001	-0.000000	-0.000000	-0.385132	-0.320587	0.272465	1.000000
[hand_up_right]
# Tx<tab>Ty<tab>Tz<tab>Rx<tab>Ry<tab>Rz<tab>BoneScaleFactor<CR>
55	-0.000001	-0.000001	0.000000	0.222354	4.058223	0.274768	1.000000
56	-0.000001	0.000000	0.000000	0.143169	2.654731	0.177858	1.000000
57	0.000000	-0.000001	-0.000000	0.081273	1.526136	0.101405	1.000000
58	-0.000001	0.000000	-0.000000	0.036578	0.693212	0.045787	1.000000
[shoulder_down_right]
# Tx<tab>Ty<tab>Tz<tab>Rx<tab>Ry<tab>Rz<tab>BoneScaleFactor<CR>
55	0.000000	0.000000	0.000000	0.000000	-0.000000	0.000002	1.000000
56	0.000001	0.000001	0.000000	0.000000	-0.000000	-0.000002	1.000000
57	0.000000	0.000000	0.000000	0.000000	-0.000000	0.000000	1.000000
58	0.000000	0.000000	-0.000000	0.000000	-0.000000	-0.000002	1.000000
[bicep_down_right]
# Tx<tab>Ty<tab>Tz<tab>Rx<tab>Ry<tab>Rz<tab>BoneScaleFactor<CR>
55	0.000000	0.000000	0.000000	-2.577597	2.364648	-0.301770	1.000000
56	0.000000	-0.000001	0.000000	-1.685680	1.549548	-0.185487	1.000000
57	0.000000	-0.000000	0.000000	-0.968949	0.892008	-0.101114	1.000000
58	0.000000	-0.000000	0.000000	-0.440113	0.405567	-0.044080	1.000000
[forearm_down_right]
# Tx<tab>Ty<tab>Tz<tab>Rx<tab>Ry<tab>Rz<tab>BoneScaleFactor<CR>
55	0.000001	-0.000000	0.000000	-1.880745	1.623829	0.308773	1.000000
56	0.000001	-0.000000	-0.000000	-1.233369	1.062987	0.208350	1.000000
57	0.000000	0.000000	0.000000	-0.710520	0.611435	0.122740	1.000000
58	0.000001	0.000000	-0.000000	-0.323251	0.277848	0.056754	1.000000
[hand_down_right]
# Tx<tab>Ty<tab>Tz<tab>Rx<tab>Ry<tab>Rz<tab>BoneScaleFactor<CR>
55	-0.000002	0.000000	0.000000	-0.000000	0.000000	0.000003	1.000000
56	0.000000	-0.000000	0.000000	0.000000	-0.000000	0.000000	1.000000
57	0.000001	0.000000	0.000000	0.000000	-0.000000	0.000000	1.000000
58	0.000000	-0.000000	0.000000	0.000000	-0.000000	0.000000	1.000000
[hip_left]
# Tx<tab>Ty<tab>Tz<tab>Rx<tab>Ry<tab>Rz<tab>BoneScaleFactor<CR>
55	0.000000	-0.000000	0.000000	0.000000	-0.000000	-0.000000	1.000000
56	0.000000	-0.000000	0.000000	0.000000	-0.000000	-0.000000	1.000000
57	0.000000	-0.000000	0.000000	0.000000	-0.000000	-0.000000	1.000000
58	0.000000	-0.000000	0.000000	0.000000	-0.000000	-0.000000	1.000000
[thigh_left]
# Tx<tab>Ty<tab>Tz<tab>Rx<tab>Ry<tab>Rz<tab>BoneScaleFactor<CR>
55	0.000000	-0.000000	0.000000	0.000001	-0.000000	0.000000	1.000000
56	0.000000	-0.000000	0.000000	0.000001	-0.000000	0.000000	1.000000
57	0.000000	-0.000000	0.000000	0.000001	-0.000000	0.000000	1.000000
58	0.000000	-0.000000	0.000000	0.000001	-0.000000	0.000000	1.000000
[shin_left]
# Tx<tab>Ty<tab>Tz<tab>Rx<tab>Ry<tab>Rz<tab>BoneScaleFactor<CR>
55	0.000000	-0.000000	0.000000	0.000000	0.000000	-0.000000	1.000000
56	0.000000	-0.000000	0.000000	0.000000	0.000000	-0.000000	1.000000
57	0.000000	-0.000000	0.000000	0.000000	0.000000	-0.000000	1.000000
58	0.000000	-0.000000	0.000000	0.000000	0.000000	-0.000000	1.000000
[foot_left]
# Tx<tab>Ty<tab>Tz<tab>Rx<tab>Ry<tab>Rz<tab>BoneScaleFactor<CR>
55	0.000000	-0.000000	0.000000	-0.000000	-0.000000	0.000000	1.000000
56	0.000000	-0.000000	0.000000	-0.000000	-0.000000	0.000000	1.000000
57	0.000000	-0.000000	0.000000	-0.000000	-0.000000	0.000000	1.000000
58	0.000000	-0.000000	0.000000	-0.000000	-0.000000	0.000000	1.000000
[hip_right]
# Tx<tab>Ty<tab>Tz<tab>Rx<tab>Ry<tab>Rz<tab>BoneScaleFactor<CR>
55	-0.000000	-0.000000	0.000000	0.000000	0.000000	0.000000	1.000000
56	-0.000000	-0.000000	0.000000	0.000000	0.000000	0.000000	1.000000
57	-0.000000	-0.000000	0.000000	0.000000	0.000000	0.000000	1.000000
58	-0.000000	-0.000000	0.000000	0.000000	0.000000	0.000000	1.000000
[thigh_right]
# Tx<tab>Ty<tab>Tz<tab>Rx<tab>Ry<tab>Rz<tab>BoneScaleFactor<CR>
55	-0.000000	-0.000000	0.000000	0.000001	0.000000	-0.000000	1.000000
56	-0.000000	-0.000000	0.000000	0.000001	0.000000	-0.000000	1.000000
57	-0.000000	-0.000000	0.000000	0.000001	0.000000	-0.000000	1.000000
58	-0.000000	-0.000000	0.000000	0.000001	0.000000	-0.000000	1.000000
[shin_right]
# Tx<tab>Ty<tab>Tz<tab>Rx<tab>Ry<tab>Rz<tab>BoneScaleFactor<CR>
55	0.000000	-0.000000	0.000000	0.000000	-0.000000	0.000000	1.000000
56	0.000000	-0.000000	0.000000	0.000000	-0.000000	0.000000	1.000000
57	0.000000	-0.000000	0.000000	0.000000	-0.000000	0.000000	1.000000
58	0.000000	-0.000000	0.000000	0.000000	-0.000000	0.000000	1.000000
[foot_right]
# Tx<tab>Ty<tab>Tz<tab>Rx<tab>Ry<tab>Rz<tab>BoneScaleFactor<CR>
55	-0.000000	-0.000000	0.000000	-0.000000	-0.000000	0.000000	1.000000
56	-0.000000	-0.000000	0.000000	-0.000000	-0.000000	0.000000	1.000000
57	-0.000000	-0.000000	0.000000	-0.000000	-0.000000	0.000000	1.000000
58	-0.000000	-0.000000	0.000000	-0.000000	-0.000000	0.000000	1.000000
[EndOfFile]
